<svg width="500" height="500" viewBox="0 0 500 500" fill="none" xmlns="http://www.w3.org/2000/svg">
<g filter="url(#filter0_d)">
<path d="M387.86 358.016C411.86 358.016 428.468 353.888 437.684 345.632L439.988 347.648C431.54 365.888 419.444 379.424 403.7 388.256C393.908 393.632 379.508 396.32 360.5 396.32C358.58 396.32 355.22 396.224 350.42 396.032C345.812 395.84 334.42 395.172 323.86 392.1C310.646 388.256 250.296 371.456 243.192 368.96C236.088 366.656 227.16 363.008 216.408 358.016C202.968 351.68 190.104 345.248 177.816 338.72C165.528 332.384 156.504 327.776 150.744 324.896C145.176 322.016 139.32 319.232 133.176 316.544C127.032 314.048 118.584 311.552 107.832 309.056C97.08 306.752 86.136 305.6 75 305.6V302.72H78.744C85.656 302.72 90.936 299.744 94.584 293.792C96.12 291.104 96.984 288.032 97.176 284.576V125.024C96.984 117.92 93.816 112.64 87.672 109.184C84.984 107.648 82.008 106.88 78.744 106.88H75V104H178.392V106.88H175.8C170.232 106.88 165.624 108.608 161.976 112.064C158.328 115.52 156.408 119.84 156.216 125.024V292.64C156.216 301.664 159.864 307.328 167.16 309.632C241.464 332.48 353.876 358.016 387.86 358.016Z" fill="#E1E1E1"/>
<path d="M211.965 296.236C185.661 296.236 172.509 285.452 172.509 263.884C172.509 262.028 172.605 260.14 172.797 258.22L173.757 258.124C173.757 270.028 177.693 278.924 185.565 284.812V234.412C185.501 232.684 184.861 231.276 183.645 230.188C182.429 229.036 181.021 228.46 179.421 228.46H178.173V227.5H207.741C218.621 227.5 226.621 229.964 231.741 234.892C234.493 237.58 235.869 240.812 235.869 244.588C235.869 248.748 234.493 252.236 231.741 255.052C230.525 256.396 229.149 257.356 227.613 257.932C227.933 257.932 228.253 257.932 228.573 257.932C232.925 257.932 236.925 259.436 240.573 262.444C244.221 265.452 246.045 269.516 246.045 274.636C246.045 279.756 244.221 284.012 240.573 287.404C234.365 293.292 224.829 296.236 211.965 296.236ZM215.229 248.044V245.164C215.037 241.004 214.205 237.9 212.733 235.852C211.261 233.804 208.765 232.652 205.245 232.396V291.052C211.005 290.988 215.485 289.452 218.685 286.444C221.885 283.372 223.485 279.372 223.485 274.444C223.485 269.004 221.981 265.068 218.973 262.636C215.965 260.204 212.477 258.988 208.509 258.988V258.124C209.853 258.124 210.973 257.772 211.869 257.068C212.829 256.3 213.533 255.372 213.981 254.284C214.813 251.916 215.229 249.836 215.229 248.044Z" fill="#E1E1E1"/>
<path d="M211.965 214.236C185.661 214.236 172.509 203.452 172.509 181.884C172.509 180.028 172.605 178.14 172.797 176.22L173.757 176.124C173.757 188.028 177.693 196.924 185.565 202.812V152.412C185.501 150.684 184.861 149.276 183.645 148.188C182.429 147.036 181.021 146.46 179.421 146.46H178.173V145.5H207.741C218.621 145.5 226.621 147.964 231.741 152.892C234.493 155.58 235.869 158.812 235.869 162.588C235.869 166.748 234.493 170.236 231.741 173.052C230.525 174.396 229.149 175.356 227.613 175.932C227.933 175.932 228.253 175.932 228.573 175.932C232.925 175.932 236.925 177.436 240.573 180.444C244.221 183.452 246.045 187.516 246.045 192.636C246.045 197.756 244.221 202.012 240.573 205.404C234.365 211.292 224.829 214.236 211.965 214.236ZM215.229 166.044V163.164C215.037 159.004 214.205 155.9 212.733 153.852C211.261 151.804 208.765 150.652 205.245 150.396V209.052C211.005 208.988 215.485 207.452 218.685 204.444C221.885 201.372 223.485 197.372 223.485 192.444C223.485 187.004 221.981 183.068 218.973 180.636C215.965 178.204 212.477 176.988 208.509 176.988V176.124C209.853 176.124 210.973 175.772 211.869 175.068C212.829 174.3 213.533 173.372 213.981 172.284C214.813 169.916 215.229 167.836 215.229 166.044Z" fill="#E1E1E1"/>
<path d="M354.386 199.5C373.946 199.5 390.776 202.768 404.877 209.305C419.13 215.842 430.047 225.419 437.628 238.036C445.209 250.501 449 265.322 449 282.5C449 308.495 440.585 328.864 423.755 343.61C406.924 358.203 383.801 365.5 354.386 365.5C324.971 365.5 301.848 358.203 285.018 343.61C268.339 328.864 260 308.495 260 282.5C260 256.505 268.339 236.212 285.018 221.618C301.848 206.873 324.971 199.5 354.386 199.5ZM321.863 335.173C329.747 347.79 340.588 354.099 354.386 354.099C368.336 354.099 379.177 347.79 386.91 335.173C394.794 322.556 398.736 304.998 398.736 282.5C398.736 260.002 394.794 242.444 386.91 229.827C379.177 217.21 368.336 210.901 354.386 210.901C340.588 210.901 329.747 217.21 321.863 229.827C314.13 242.444 310.264 260.002 310.264 282.5C310.264 304.998 314.13 322.556 321.863 335.173Z" fill="#E1E1E1"/>
</g>
<defs>
<filter id="filter0_d" x="75" y="104" width="380" height="298.32" filterUnits="userSpaceOnUse" color-interpolation-filters="sRGB">
<feFlood flood-opacity="0" result="BackgroundImageFix"/>
<feColorMatrix in="SourceAlpha" type="matrix" values="0 0 0 0 0 0 0 0 0 0 0 0 0 0 0 0 0 0 127 0"/>
<feOffset dx="5" dy="5"/>
<feGaussianBlur stdDeviation="0.5"/>
<feColorMatrix type="matrix" values="0 0 0 0 1 0 0 0 0 0 0 0 0 0 0 0 0 0 1 0"/>
<feBlend mode="normal" in2="BackgroundImageFix" result="effect1_dropShadow"/>
<feBlend mode="normal" in="SourceGraphic" in2="effect1_dropShadow" result="shape"/>
</filter>
</defs>
</svg>
